# xmcd
#
# Track frame offsets:
#	150
#	7914
#	25234
#	44277
#	60832
#	73738
#	92682
#	94692
#	113533
#	129469
#	146087
#	166484
#	181534
#	196899
#
# Disc length: 2862 seconds
#
# Revision: 0
# Processed by: cddbd v1.5.2PL0 Copyright (c) Steve Scherf et al.
# Submitted via: EasyCDDAExtractor 11.0.2.1
#
DISCID=aa0b2c0e
DTITLE=Dirty Jerk - Luv Me Or Hate Me
DYEAR=1900
DGENRE=Rap
TTITLE0=Intro
TTITLE1=Don't Started None (Feat. Mr. Low)
TTITLE2=After Hourz
TTITLE3=Luv Or Hate Me (Feat. MC Breed)
TTITLE4=Be About It (Feat. Alfdy and Cobane Coyz)
TTITLE5=Getto World
TTITLE6=Live Action (Feat. Somebody'z Bitch)
TTITLE7=Promise (Feat. Nikka)
TTITLE8=Make Money (Feat. MC Breed)
TTITLE9=Welcome To Saginaw (Feat. Bone Skanless)
TTITLE10=Crack Rock (Feat. Mack The Jack'a)
TTITLE11=Take It To The Streets
TTITLE12=Dirty Ways
TTITLE13=It's Dirty
EXTD=
EXTT0=
EXTT1=
EXTT2=
EXTT3=
EXTT4=
EXTT5=
EXTT6=
EXTT7=
EXTT8=
EXTT9=
EXTT10=
EXTT11=
EXTT12=
EXTT13=
PLAYORDER=
